HIERARCHY
ROOT Hips
{
 OFFSET 0.000000 0.000000 0.000000
 CHANNELS 6 Xposition Yposition Zposition Yrotation Xrotation Zrotation
 JOINT Chest
 {
  OFFSET 0.000000 9.585900 0.002600
  CHANNELS 3 Yrotation Xrotation Zrotation
  JOINT Chest2
  {
   OFFSET 0.000000 9.601200 -0.005300
   CHANNELS 3 Yrotation Xrotation Zrotation
   JOINT Chest3
   {
    OFFSET 0.000000 9.561800 0.000000
    CHANNELS 3 Yrotation Xrotation Zrotation
    JOINT Chest4
    {
     OFFSET 0.000000 9.552100 0.000000
     CHANNELS 3 Yrotation Xrotation Zrotation
     JOINT Neck
     {
      OFFSET 0.000000 14.453000 0.000000
      CHANNELS 3 Yrotation Xrotation Zrotation
      JOINT Head
      {
       OFFSET 0.000000 8.936500 -0.011300
       CHANNELS 3 Yrotation Xrotation Zrotation
       End Site
       {
        OFFSET 0.000000 17.073600 -0.006000
       }
      }
     }
     JOINT RightCollar
     {
      OFFSET -2.921100 9.558500 0.000000
      CHANNELS 3 Yrotation Xrotation Zrotation
      JOINT RightShoulder
      {
       OFFSET -13.519700 0.000000 0.000000
       CHANNELS 3 Yrotation Xrotation Zrotation
       JOINT RightElbow
       {
        OFFSET 0.000000 -29.696600 0.000000
        CHANNELS 3 Yrotation Xrotation Zrotation
        JOINT RightWrist
        {
         OFFSET 0.000000 -24.004700 0.000000
         CHANNELS 3 Yrotation Xrotation Zrotation
         End Site
         {
          OFFSET 0.000000 -17.728500 0.000000
         }
        }
       }
      }
     }
     JOINT LeftCollar
     {
      OFFSET 2.921100 9.558500 0.000000
      CHANNELS 3 Yrotation Xrotation Zrotation
      JOINT LeftShoulder
      {
       OFFSET 13.519700 0.000000 0.000000
       CHANNELS 3 Yrotation Xrotation Zrotation
       JOINT LeftElbow
       {
        OFFSET 0.000000 -29.696600 0.000000
        CHANNELS 3 Yrotation Xrotation Zrotation
        JOINT LeftWrist
        {
         OFFSET 0.000000 -24.004700 0.000000
         CHANNELS 3 Yrotation Xrotation Zrotation
         End Site
         {
          OFFSET 0.000000 -17.728500 0.000000
         }
        }
       }
      }
     }
    }
   }
  }
 }
 JOINT RightHip
 {
  OFFSET -7.771700 -0.012900 -0.001300
  CHANNELS 3 Yrotation Xrotation Zrotation
  JOINT RightKnee
  {
   OFFSET 0.000000 -40.869800 0.001200
   CHANNELS 3 Yrotation Xrotation Zrotation
   JOINT RightAnkle
   {
    OFFSET 0.000000 -39.717900 0.002100
    CHANNELS 3 Yrotation Xrotation Zrotation
    JOINT RightToe
    {
     OFFSET 0.000000 -4.965400 11.033500
     CHANNELS 3 Yrotation Xrotation Zrotation
     End Site
     {
      OFFSET 0.000000 -1.423100 5.872300
     }
    }
   }
  }
 }
 JOINT LeftHip
 {
  OFFSET 7.771700 -0.012900 -0.001300
  CHANNELS 3 Yrotation Xrotation Zrotation
  JOINT LeftKnee
  {
   OFFSET 0.000000 -40.869800 0.001200
   CHANNELS 3 Yrotation Xrotation Zrotation
   JOINT LeftAnkle
   {
    OFFSET 0.000000 -39.717900 0.002100
    CHANNELS 3 Yrotation Xrotation Zrotation
    JOINT LeftToe
    {
     OFFSET 0.000000 -4.965400 11.033500
     CHANNELS 3 Yrotation Xrotation Zrotation
     End Site
     {
      OFFSET 0.000000 -1.423100 5.872300
     }
    }
   }
  }
 }
}
MOTION
Frames: 16
Frame Time: 0.008333
0.000000 85.388000 0.000000 0.000000 -5.767877 0.000000 0.000000 11.653817 0.000000 0.000000 -5.885947 0.000000 0.000000 -0.000000 0.000000 0.000000 -0.000000 0.000000 0.000000 12.528835 0.000000 0.000000 0.711642 0.000000 0.000000 -0.000000 0.000000 0.000000 0.000000 -90.000000 0.000000 -2.309062 0.000000 0.000000 2.309062 0.000000 0.000000 -0.000000 0.000000 0.000000 -0.000000 90.000000 0.000000 -2.309062 0.000000 0.000000 2.309062 0.000000 0.000000 8.520406 0.000000 0.000000 1.905762 0.000000 -0.000000 -4.658285 0.000000 0.000000 -0.000000 0.000000 0.000000 8.520406 0.000000 0.000000 1.905762 0.000000 -0.000000 -4.658285 0.000000 0.000000 -0.000000 0.000000
-55.477707 54.611891 48.764398 -179.029582 -29.867624 -10.189725 0.424949 12.657604 5.554101 0.214234 7.359376 2.219780 0.323274 9.197261 2.780096 0.220544 7.359818 2.221787 2.555560 18.259479 -2.127264 3.233412 -6.404902 -2.879109 0.634771 -0.245095 -3.750578 -17.372992 -1.794611 3.025627 -40.002810 -79.375415 56.170857 10.434627 1.674926 -10.159401 -7.850584 1.552844 -2.702938 6.029519 -0.261587 -0.848900 -93.855577 -82.432125 95.928208 13.540258 -7.256980 -0.484785 -18.723822 -36.748859 4.620755 -8.401105 87.274737 -11.623864 2.187735 -17.444691 1.173701 -0.085115 0.459466 -0.003664 -15.166905 -48.030965 15.777497 170.263852 79.563749 164.844061 -1.779970 -16.290403 2.119813 -0.566740 -2.324658 -0.243072
-55.481175 54.627068 48.759864 -179.005450 -29.860091 -10.191706 0.401810 12.655776 5.558361 0.208341 7.358538 2.212149 0.305457 9.197392 2.789383 0.207819 7.359234 2.223476 2.550617 18.271653 -2.164912 3.226465 -6.377608 -2.924173 0.670945 -0.230974 -3.769251 -17.380144 -1.814947 3.011048 -40.077743 -79.359866 56.264610 10.429341 1.662546 -10.114401 -7.852861 1.549313 -2.702260 6.025864 -0.315153 -0.787388 -93.541982 -82.499202 95.621311 13.558808 -7.266411 -0.551291 -18.727688 -36.754598 4.607181 -8.407806 87.284584 -11.637244 2.170345 -17.460473 1.189640 -0.084048 0.456112 -0.012995 -15.153774 -48.032641 15.762841 170.309440 79.573750 164.891825 -1.787898 -16.308052 2.115690 -0.559775 -2.306290 -0.228802
-55.485194 54.644573 48.754259 -178.980349 -29.854938 -10.191899 0.375558 12.655069 5.551081 0.180993 7.354468 2.230942 0.271748 9.191719 2.791237 0.219676 7.364808 2.205776 2.570454 18.284986 -2.196426 3.203515 -6.340627 -2.974468 0.715133 -0.203133 -3.775993 -17.390771 -1.851842 2.984103 -40.189246 -79.333248 56.396741 10.429293 1.643750 -10.079739 -7.824572 1.557548 -2.723836 5.997934 -0.372683 -0.705511 -93.418243 -82.548903 95.461208 13.592923 -7.255098 -0.538761 -18.730779 -36.758870 4.588827 -8.446364 87.296367 -11.683515 2.155533 -17.477180 1.207056 -0.103070 0.455460 -0.016409 -15.144190 -48.033240 15.757354 170.362139 79.580381 164.932409 -1.805898 -16.315423 2.141211 -0.553131 -2.299428 -0.233483
-55.489812 54.663784 48.747534 -178.962604 -29.855885 -10.185509 0.355619 12.659107 5.540669 0.171460 7.349598 2.237111 0.266208 9.193451 2.785323 0.159232 7.344252 2.235336 2.587311 18.325047 -2.264184 3.207866 -6.306027 -3.025698 0.800339 -0.155799 -3.797337 -17.404641 -1.891112 2.958932 -40.309512 -79.310661 56.540169 10.439959 1.636416 -10.068603 -7.763521 1.582215 -2.768960 5.967327 -0.429367 -0.622826 -93.261059 -82.612237 95.282711 13.613852 -7.239378 -0.496595 -18.716509 -36.760204 4.567090 -8.623530 87.308734 -11.863113 2.113284 -17.495046 1.232644 -0.095342 0.455588 -0.019238 -15.133779 -48.032814 15.757807 170.421356 79.578685 164.956874 -1.791397 -16.300750 2.183055 -0.585506 -2.317713 -0.249300
-55.493161 54.683277 48.741825 -178.946422 -29.850259 -10.186516 0.339874 12.655097 5.544597 0.165826 7.339679 2.237015 0.255367 9.200250 2.781325 0.145719 7.323406 2.243038 2.569175 18.364968 -2.304103 3.208550 -6.264664 -3.084332 0.837771 -0.114129 -3.786965 -17.387575 -1.929536 2.935754 -40.556429 -79.307100 56.794326 10.459240 1.679622 -10.093660 -7.781183 1.637558 -2.768435 5.960067 -0.510395 -0.561123 -92.933620 -82.697548 94.984790 13.631572 -7.256076 -0.544697 -18.690184 -36.765536 4.546781 -8.912302 87.316113 -12.141610 2.092790 -17.513014 1.255409 -0.092911 0.459243 -0.019685 -15.133481 -48.033806 15.756091 170.463781 79.582758 164.991051 -1.785951 -16.304470 2.186552 -0.595593 -2.316044 -0.244625
-55.496668 54.702421 48.737069 -178.932075 -29.839943 -10.186478 0.344092 12.628283 5.558623 0.146946 7.335449 2.229709 0.229214 9.168003 2.795837 0.146902 7.335399 2.229705 2.524053 18.423829 -2.374171 3.223689 -6.223274 -3.125907 0.859620 -0.056428 -3.769091 -17.383163 -1.956794 2.919832 -40.583203 -79.317734 56.811521 10.456636 1.642892 -10.073435 -7.791872 1.691985 -2.778923 5.926933 -0.572606 -0.485823 -93.037400 -82.692705 95.054606 13.680607 -7.276279 -0.551708 -18.685937 -36.776562 4.535109 -9.035614 87.326674 -12.257818 2.053912 -17.526158 1.267986 -0.074670 0.459898 -0.017931 -15.125771 -48.036717 15.759859 170.543266 79.592489 165.064012 -1.807055 -16.319697 2.198739 -0.583246 -2.301269 -0.238045
-55.501634 54.721808 48.731440 -178.902401 -29.836231 -10.186803 0.330650 12.607875 5.553409 0.132845 7.341688 2.228147 0.228021 9.134822 2.801106 0.139651 7.323302 2.231807 2.512781 18.483831 -2.392059 3.206675 -6.163193 -3.218026 0.864406 0.023448 -3.742013 -17.372291 -1.990724 2.909477 -40.590944 -79.337532 56.805011 10.460065 1.604180 -10.065761 -7.811361 1.757449 -2.790167 5.889340 -0.630568 -0.412383 -92.968032 -82.675834 94.996163 13.710422 -7.293866 -0.561690 -18.696321 -36.779170 4.517085 -9.015410 87.340774 -12.248194 2.037524 -17.542074 1.282405 -0.074892 0.458731 -0.019550 -15.120640 -48.034152 15.750605 170.616361 79.601751 165.124099 -1.821864 -16.329582 2.221773 -0.577055 -2.290880 -0.240828
-55.506793 54.741783 48.724681 -178.850123 -29.841790 -10.199457 0.302555 12.593622 5.547724 0.116500 7.351487 2.228040 0.236327 9.092646 2.805937 0.125112 7.347829 2.231017 2.485616 18.502703 -2.492491 3.204734 -6.093606 -3.250823 0.869592 0.084038 -3.705271 -17.362824 -2.031178 2.905855 -40.664302 -79.375583 56.876050 10.472861 1.587000 -10.067017 -7.823150 1.792180 -2.796130 5.844555 -0.686638 -0.341077 -92.798435 -82.649464 94.862505 13.726447 -7.307539 -0.592472 -18.707815 -36.765197 4.490959 -9.035963 87.351076 -12.277287 2.035655 -17.561165 1.298552 -0.074809 0.457560 -0.019749 -15.107554 -48.018694 15.729230 170.704723 79.616016 165.208222 -1.846578 -16.353646 2.246821 -0.567499 -2.266005 -0.236860
-55.510845 54.761026 48.719424 -178.842254 -29.850076 -10.198982 0.318859 12.569373 5.550763 0.108723 7.341877 2.232685 0.241717 9.065589 2.807468 0.103861 7.377519 2.233376 2.476181 18.520228 -2.586865 3.193744 -6.016640 -3.311200 0.866285 0.189043 -3.599357 -17.359846 -2.130123 2.838055 -41.146152 -79.430363 57.353653 10.495226 1.592550 -10.026812 -7.838294 1.828086 -2.801957 5.802849 -0.745589 -0.280105 -92.578685 -82.603922 94.687134 13.731562 -7.314243 -0.640098 -18.692096 -36.757826 4.468347 -8.998818 87.359054 -12.240215 2.075610 -17.572479 1.292197 -0.073655 0.456706 -0.017915 -15.098705 -48.011666 15.737206 170.747147 79.611388 165.221194 -1.822555 -16.335256 2.281437 -0.609720 -2.288938 -0.250889
-55.514918 54.779237 48.715774 -178.830752 -29.852522 -10.202481 0.328570 12.545433 5.554561 0.110330 7.319911 2.236027 0.249580 9.040910 2.810508 0.125804 7.297954 2.240603 2.425921 18.651175 -2.671851 3.185290 -5.937301 -3.398173 0.806926 0.374170 -3.535574 -17.355982 -2.184945 2.809423 -41.230483 -79.450343 57.428333 10.488251 1.542382 -9.983338 -7.907430 1.972718 -2.818772 5.775683 -0.789434 -0.241620 -92.460849 -82.535392 94.606508 13.729326 -7.306628 -0.700815 -18.686509 -36.753993 4.460588 -9.218664 87.364965 -12.452962 2.062901 -17.583830 1.294017 -0.056928 0.454790 -0.021031 -15.073371 -48.007890 15.729729 170.775812 79.616207 165.250690 -1.833896 -16.340027 2.300852 -0.605231 -2.284823 -0.256438
-55.519621 54.798135 48.710472 -178.786783 -29.866768 -10.220862 0.299931 12.556374 5.553307 0.166910 7.223115 2.246077 0.208278 9.090347 2.811768 0.150000 7.243332 2.245006 2.389590 18.743337 -2.766959 3.181147 -5.855994 -3.497216 0.752690 0.518093 -3.465665 -17.342030 -2.239952 2.800930 -41.248790 -79.486173 57.426263 10.487412 1.537853 -9.962112 -7.963723 2.074114 -2.825475 5.764918 -0.800975 -0.233242 -92.591045 -82.447426 94.762188 13.725251 -7.279344 -0.778591 -18.705275 -36.728291 4.434607 -9.190982 87.368169 -12.422940 2.098306 -17.602688 1.279130 -0.075175 0.458093 -0.015994 -15.067847 -47.988016 15.713964 170.806708 79.622245 165.283347 -1.850841 -16.347616 2.320749 -0.603031 -2.276911 -0.255762
-55.523552 54.815216 48.708200 -178.783342 -29.871149 -10.225397 0.322433 12.522207 5.562325 0.156020 7.233835 2.248378 0.230013 9.049085 2.818275 0.154073 7.229147 2.249077 2.366011 18.811890 -2.872285 3.181607 -5.775752 -3.605961 0.702236 0.633788 -3.394624 -17.325429 -2.281861 2.845523 -41.652239 -79.522175 57.789307 10.576699 1.590094 -9.918645 -8.002027 2.164583 -2.827090 5.730474 -0.877211 -0.204725 -92.349084 -82.410116 94.565524 13.717986 -7.230891 -0.871850 -18.709580 -36.723863 4.411943 -8.717708 87.375035 -11.966012 2.247667 -17.609509 1.239445 -0.071248 0.457554 -0.012123 -15.033672 -47.982908 15.708169 170.834436 79.627376 165.318450 -1.864483 -16.355477 2.336103 -0.600155 -2.270246 -0.254953
-55.528216 54.832304 48.705114 -178.760575 -29.881354 -10.236756 0.332234 12.496214 5.572432 0.142497 7.245092 2.248417 0.259085 8.996083 2.827197 0.137145 7.249375 2.250729 2.358471 18.858938 -2.981549 3.188283 -5.700747 -3.720620 0.661070 0.726862 -3.322737 -17.325669 -2.329771 2.850025 -42.004324 -79.509291 58.117736 10.551237 1.520424 -9.838054 -8.034131 2.226317 -2.830164 5.723533 -0.989985 -0.181154 -91.804191 -82.395782 94.046142 13.713122 -7.174845 -0.951414 -18.727242 -36.710040 4.372866 -8.110212 87.382978 -11.389408 2.472944 -17.617712 1.186874 -0.064283 0.456209 -0.005842 -15.013282 -47.966901 15.692652 170.858530 79.636496 165.352039 -1.878455 -16.374239 2.343252 -0.589298 -2.251743 -0.250790
-55.533237 54.849240 48.701563 -178.736625 -29.896850 -10.247673 0.342950 12.464555 5.579729 0.155222 7.216660 2.257854 0.243330 9.014063 2.832496 0.111814 7.286347 2.246936 2.378547 18.869057 -3.088183 3.201184 -5.631219 -3.837163 0.643286 0.784439 -3.250696 -17.330710 -2.378852 2.862590 -42.222867 -79.494276 58.318202 10.524911 1.468111 -9.788436 -8.041522 2.256257 -2.826514 5.736080 -1.039387 -0.189167 -91.658891 -82.381273 93.895933 13.699841 -7.120565 -1.028028 -18.743381 -36.688275 4.366890 -8.504203 87.381357 -11.785580 2.438772 -17.627821 1.199131 -0.067246 0.457081 -0.008611 -14.999022 -47.943601 15.680872 170.891597 79.646215 165.388089 -1.896166 -16.392174 2.350499 -0.570059 -2.233994 -0.248734
-55.537150 54.866100 48.697765 -178.731080 -29.919053 -10.256495 0.352837 12.471417 5.589122 0.170450 7.182559 2.267743 0.241548 9.010505 2.838806 0.123482 7.269615 2.246776 2.366925 18.930574 -3.187771 3.220463 -5.563306 -3.952225 0.592216 0.889301 -3.182913 -17.338284 -2.425519 2.883963 -42.180636 -79.515958 58.272439 10.445451 1.419497 -9.765169 -8.085763 2.333007 -2.833798 5.765145 -1.077866 -0.203879 -91.606433 -82.368560 93.826895 13.701705 -7.053578 -1.105856 -18.745721 -36.660897 4.382048 -8.999383 87.380229 -12.264176 2.262422 -17.634781 1.241038 -0.073776 0.457954 -0.016033 -14.956116 -47.918447 15.687354 170.928044 79.648270 165.416889 -1.928054 -16.400644 2.389446 -0.573851 -2.230593 -0.248644
